<svg fill="#3b82f6" height="64px" width="64px" version="1.1" id="Layer_1" xmlns="http://www.w3.org/2000/svg" xmlns:xlink="http://www.w3.org/1999/xlink" viewBox="0 0 491.52 491.52" xml:space="preserve" stroke="#3b82f6"><g id="SVGRepo_bgCarrier" stroke-width="0"></g><g id="SVGRepo_tracerCarrier" stroke-linecap="round" stroke-linejoin="round"></g><g id="SVGRepo_iconCarrier"> <g> <g> <path d="M393.36,358.4l-20.48-20.48H307.2v71.68h-30.72V291.17h78.25c55.53,0,95.83-36.32,95.83-86.37 c0-36.37-23.23-68.81-56.655-81.11c3.04-10.1,4.13-20.59,3.41-32.27C394.23,41.41,349.71,0.4,298.07,0c-0.265,0-0.52,0-0.78,0 c-40.865,0-77.405,24.44-92.67,60.21c-15.095-11.2-34.165-16.58-53.58-14.8c-27.945,2.62-52.385,21.23-63.78,48.56 c-5.415,12.99-4.705,27.42-3.465,36.22c-26.26,15.37-42.835,43.84-42.835,74.61c0,49.24,41.2,86.37,95.83,86.37h78.25V409.6 h-30.72v-51.2H86.16l-20.48-20.48H0v153.6h184.32v-61.44h51.2V291.17H256v138.91h51.2v61.44h184.32V358.4H393.36z M163.84,471.04 H20.48V358.4H57.2l20.48,20.48h86.16V471.04z M136.79,270.69c-43.66,0-75.35-27.71-75.35-65.89c0-25.54,14.97-49.01,38.14-59.78 l7.775-3.65l-2.2-8.29c-0.045-0.18-4.605-17.77,1.005-31.23c8.475-20.32,26.405-34.14,46.79-36.04c1.84-0.18,3.67-0.26,5.495-0.26 c16.685,0,32.505,7.13,43.12,19.68l13.265,15.67l4.535-20.03c7.985-35.28,41.435-60.6,78.545-60.39 c41.105,0.32,76.53,32.71,78.965,72.2c0.78,12.66-0.995,23-5.745,33.51l-5.21,11.53l12.36,2.7c30.015,6.53,51.8,33.61,51.8,64.38 c0,38.8-30.985,65.89-75.35,65.89H136.79z M471.04,471.04H327.68V358.4h36.72l20.48,20.48h86.16V471.04z"></path> </g> </g> </g></svg>