<svg width="250" height="150" viewBox="0 0 250 150" fill="none" xmlns="http://www.w3.org/2000/svg">
<path opacity="0.85" d="M78.9302 99.7258C75.93 99.7258 73.2523 98.9596 70.8972 97.4272C68.5583 95.8787 66.7194 93.6769 65.3806 90.8218C64.0579 87.9505 63.3965 84.5067 63.3965 80.4902C63.3965 76.4736 64.066 73.0378 65.4048 70.1827C66.7598 67.3276 68.6148 65.142 70.9698 63.6257C73.3249 62.1094 75.9945 61.3513 78.9786 61.3513C81.2853 61.3513 83.1403 61.7384 84.5437 62.5127C85.9631 63.2708 87.06 64.158 87.8343 65.1742C88.6247 66.1904 89.2376 67.0857 89.6732 67.8599H90.1087V49.4469H97.3432V98.9999H90.2781V93.2171H89.6732C89.2376 94.0075 88.6086 94.9108 87.7859 95.9271C86.9794 96.9433 85.8664 97.8305 84.4469 98.5886C83.0274 99.3467 81.1885 99.7258 78.9302 99.7258ZM80.5272 93.5559C82.608 93.5559 84.3662 93.0074 85.8018 91.9106C87.2536 90.7976 88.3505 89.2571 89.0925 87.2892C89.8506 85.3212 90.2297 83.0307 90.2297 80.4176C90.2297 77.8367 89.8587 75.5784 89.1167 73.6427C88.3747 71.7071 87.2859 70.1989 85.8502 69.1181C84.4146 68.0374 82.6403 67.497 80.5272 67.497C78.3495 67.497 76.5349 68.0616 75.0831 69.1907C73.6314 70.3199 72.5345 71.8603 71.7925 73.8121C71.0666 75.7639 70.7037 77.9657 70.7037 80.4176C70.7037 82.9017 71.0747 85.1357 71.8167 87.1198C72.5587 89.1039 73.6556 90.6766 75.1073 91.838C76.5752 92.9833 78.3818 93.5559 80.5272 93.5559ZM123.686 99.75C120.025 99.75 116.871 98.9677 114.226 97.403C111.597 95.8222 109.564 93.6043 108.129 90.7492C106.709 87.8779 105.999 84.5147 105.999 80.6595C105.999 76.8527 106.709 73.4976 108.129 70.5941C109.564 67.6906 111.564 65.4242 114.129 63.7951C116.71 62.1659 119.726 61.3513 123.178 61.3513C125.275 61.3513 127.308 61.6981 129.276 62.3917C131.244 63.0853 133.01 64.1741 134.575 65.6581C136.139 67.1421 137.373 69.0697 138.276 71.4409C139.18 73.796 139.631 76.6592 139.631 80.0304V82.5952H110.088V77.1753H132.542C132.542 75.2719 132.155 73.5863 131.381 72.1184C130.606 70.6344 129.518 69.4649 128.114 68.61C126.727 67.7551 125.098 67.3276 123.227 67.3276C121.194 67.3276 119.42 67.8277 117.904 68.8278C116.403 69.8117 115.242 71.1022 114.419 72.6991C113.613 74.2799 113.21 75.9978 113.21 77.8528V82.0871C113.21 84.5712 113.645 86.6843 114.516 88.4264C115.403 90.1685 116.637 91.4992 118.218 92.4187C119.799 93.322 121.646 93.7736 123.759 93.7736C125.13 93.7736 126.38 93.5801 127.509 93.1929C128.638 92.7897 129.614 92.1929 130.437 91.4025C131.26 90.6121 131.889 89.6362 132.324 88.4748L139.172 89.7088C138.623 91.7251 137.639 93.4914 136.22 95.0076C134.816 96.5078 133.05 97.6772 130.921 98.516C128.808 99.3387 126.396 99.75 123.686 99.75ZM154.893 76.9334V98.9999H147.658V61.8352H154.603V67.8841H155.062C155.917 65.9162 157.256 64.3354 159.079 63.1418C160.918 61.9481 163.232 61.3513 166.023 61.3513C168.556 61.3513 170.773 61.8836 172.677 62.9482C174.58 63.9967 176.056 65.5613 177.105 67.6422C178.153 69.723 178.677 72.2958 178.677 75.3606V98.9999H171.443V76.2317C171.443 73.5379 170.741 71.4329 169.338 69.9166C167.934 68.3842 166.007 67.618 163.555 67.618C161.877 67.618 160.385 67.9809 159.079 68.7068C157.788 69.4327 156.764 70.4973 156.006 71.9006C155.264 73.2879 154.893 74.9654 154.893 76.9334ZM188.38 98.9999V61.8352H195.614V98.9999H188.38ZM192.033 56.1008C190.775 56.1008 189.695 55.6814 188.791 54.8426C187.904 53.9877 187.46 52.9715 187.46 51.7939C187.46 50.6003 187.904 49.5841 188.791 48.7453C189.695 47.8903 190.775 47.4629 192.033 47.4629C193.292 47.4629 194.364 47.8903 195.252 48.7453C196.155 49.5841 196.606 50.6003 196.606 51.7939C196.606 52.9715 196.155 53.9877 195.252 54.8426C194.364 55.6814 193.292 56.1008 192.033 56.1008ZM222.696 61.8352V67.6422H202.395V61.8352H222.696ZM207.839 52.9311H215.074V88.0876C215.074 89.491 215.284 90.5475 215.703 91.2573C216.122 91.9509 216.663 92.4267 217.324 92.6848C218.002 92.9268 218.736 93.0478 219.526 93.0478C220.107 93.0478 220.615 93.0074 221.05 92.9268C221.486 92.8461 221.825 92.7816 222.067 92.7332L223.373 98.7096C222.954 98.8709 222.357 99.0322 221.583 99.1935C220.808 99.3709 219.841 99.4677 218.679 99.4839C216.776 99.5161 215.001 99.1774 213.356 98.4676C211.711 97.7579 210.38 96.661 209.364 95.177C208.348 93.693 207.839 91.8299 207.839 89.5878V52.9311ZM230.698 98.9999V61.8352H237.933V98.9999H230.698ZM234.352 56.1008C233.094 56.1008 232.013 55.6814 231.11 54.8426C230.223 53.9877 229.779 52.9715 229.779 51.7939C229.779 50.6003 230.223 49.5841 231.11 48.7453C232.013 47.8903 233.094 47.4629 234.352 47.4629C235.61 47.4629 236.683 47.8903 237.57 48.7453C238.473 49.5841 238.925 50.6003 238.925 51.7939C238.925 52.9715 238.473 53.9877 237.57 54.8426C236.683 55.6814 235.61 56.1008 234.352 56.1008Z" fill="#050505"/>
<path d="M44.4956 76.0358V98.8248C38.7775 98.8248 36.198 95.0217 35.5408 92.9575L35.3762 78.5129C35.3762 76.1349 33.5687 73.7239 32.665 72.8157C26.3553 67.2671 20.3414 70.5037 18.1232 72.8157C13.1937 77.5716 16.0692 84.045 18.1232 86.6872C25.2215 92.8303 31.2683 88.256 33.4044 85.201C32.6157 88.9661 33.1081 94.6172 32.0734 96.3541C27.9347 98.8248 24.141 99.1332 21.3819 99.1332C6.5935 98.7469 4.81369 80.2468 6.53899 75.045C9.69383 61.1735 22.3132 59.5221 28.2285 60.4303C40.4535 62.2138 44.167 71.5771 44.4956 76.0358Z" fill="url(#paint0_linear_27_236)"/>
<path d="M58.444 65.1905V94.0148C58.444 96.4301 56.4859 98.3881 54.0706 98.3881C51.6553 98.3881 49.6973 96.4301 49.6973 94.0148V65.1905C49.6973 62.7752 51.6553 60.8171 54.0706 60.8171C56.4859 60.8171 58.444 62.7751 58.444 65.1905Z" fill="url(#paint1_linear_27_236)"/>
<circle cx="54.5282" cy="49.4597" r="6.45979" fill="url(#paint2_linear_27_236)"/>
<defs>
<linearGradient id="paint0_linear_27_236" x1="7.76361" y1="74.1428" x2="46.3244" y2="90.5419" gradientUnits="userSpaceOnUse">
<stop offset="0.120571" stop-color="#7BABF4"/>
<stop offset="0.313296" stop-color="#56B6D7"/>
<stop offset="0.673715" stop-color="#34BEFE"/>
<stop offset="0.921472" stop-color="#1FD7CD"/>
</linearGradient>
<linearGradient id="paint1_linear_27_236" x1="50.098" y1="74.256" x2="60.3415" y2="75.281" gradientUnits="userSpaceOnUse">
<stop offset="0.120571" stop-color="#7BABF4"/>
<stop offset="0.313296" stop-color="#56B6D7"/>
<stop offset="0.673715" stop-color="#34BEFE"/>
<stop offset="0.921472" stop-color="#1FD7CD"/>
</linearGradient>
<linearGradient id="paint2_linear_27_236" x1="48.6602" y1="47.6212" x2="61.5592" y2="53.1655" gradientUnits="userSpaceOnUse">
<stop offset="0.120571" stop-color="#7BABF4"/>
<stop offset="0.313296" stop-color="#56B6D7"/>
<stop offset="0.673715" stop-color="#34BEFE"/>
<stop offset="0.921472" stop-color="#1FD7CD"/>
</linearGradient>
</defs>
</svg>
